# xmcd
#
# Track frame offsets:
#	150
#	25816
#	46031
#	74190
#	98050
#	117195
#	140010
#	161278
#	188856
#	205444
#	232766
#	252221
#	274915
#	301192
#
# Disc length: 4223 seconds
#
# Revision: 1
# Processed by: cddbd v1.5.1PL0 Copyright (c) Steve Scherf et al.
# Submitted via: audiograbber 1.83.01
#
DISCID=bf107d0e
DTITLE=Variouss Artists - Songs For The Soul Vol. 2
DYEAR=2002
DGENRE=Gosple
TTITLE0=Foretold - God's Got It
TTITLE1=Yolanda Adams - You Know That I Know
TTITLE2=Daryl Coley Featuring Donald Hayes - No Weapon
TTITLE3=Tones - Language O'Tears
TTITLE4=Joey Kibble and ALvin Chea - God Will Take Care Of You
TTITLE5=Colorado Mass Choir - Hold On
TTITLE6=Ben Tankard - Love
TTITLE7=Venessa Bell Armstrong - Yes He Loves Me
TTITLE8=Duawne Starling and Tiffany Palmer - Everything Is Everything
TTITLE9=Duawne Starling  - Not Another Minute
TTITLE10=Tim  McDonald - In Need Of  A Prayer
TTITLE11=Angelo and Veronica - I Will Trust You
TTITLE12=Duawne Starling - Send Us
TTITLE13=Tonex - Language O'Tears (Reprise)
EXTD=YEAR: 2002
EXTT0=
EXTT1=
EXTT2=
EXTT3=
EXTT4=
EXTT5=
EXTT6=
EXTT7=
EXTT8=
EXTT9=
EXTT10=
EXTT11=
EXTT12=
EXTT13=
PLAYORDER=
